<?xml version="1.0" standalone="no"?>
<!DOCTYPE svg PUBLIC "-//W3C//DTD SVG 20010904//EN" "http://www.w3.org/TR/2001/REC-SVG-20010904/DTD/svg10.dtd">
<svg version="1.0" xmlns="http://www.w3.org/2000/svg" width="600.000000pt" height="600.000000pt" viewBox="0 0 600.000000 600.000000" preserveAspectRatio="xMidYMid meet" fill="#fff">

    <title>Envelope</title>

    <g transform="translate(0.000000,600.000000) scale(0.100000,-0.100000)" stroke="none">
        <path d="M1013 4409 c-34 -10 -80 -58 -88 -92 -3 -12 -4 -583 -3 -1269 l3
        -1247 30 -31 c16 -17 45 -35 65 -41 23 -7 688 -9 2020 -7 1900 3 1986 4 2012
        21 15 10 35 30 45 45 17 26 18 85 18 1283 l0 1256 -28 37 c-16 20 -40 41 -54
        47 -32 12 -3977 10 -4020 -2z m3851 -98 c-70 -64 -1879 -1451 -1887 -1447 -7
        2 -418 327 -915 720 l-904 716 294 1 c2248 12 2963 15 3172 17 142 1 246 -2
        240 -7z m156 -1226 c0 -1009 -2 -1215 -13 -1208 -61 37 -1607 1167 -1605 1173
        4 10 1600 1249 1611 1249 4 1 7 -546 7 -1214z m-3205 571 c423 -335 771 -610
        773 -611 2 -2 -1525 -1130 -1555 -1149 -10 -6 -13 235 -13 1189 0 954 3 1195
        12 1188 7 -4 359 -281 783 -617z m999 -790 c135 -108 154 -120 182 -117 6 0
        78 53 160 116 82 63 154 114 160 113 5 -2 367 -262 803 -578 l793 -575 -950
        -3 c-523 -1 -1380 -1 -1905 0 l-955 3 782 577 c429 317 782 577 784 577 1 1
        67 -50 146 -113z" fill="#25d" />
    </g>
</svg>