<?xml version="1.0" standalone="no"?>
<!DOCTYPE svg PUBLIC "-//W3C//DTD SVG 20010904//EN"
 "http://www.w3.org/TR/2001/REC-SVG-20010904/DTD/svg10.dtd">
<svg version="1.0" xmlns="http://www.w3.org/2000/svg"
 width="512.000000pt" height="512.000000pt" viewBox="0 0 512.000000 512.000000"
 preserveAspectRatio="xMidYMid meet">

<g transform="translate(0.000000,512.000000) scale(0.100000,-0.100000)"
fill="#fff" stroke="none">
<path d="M1980 4650 c-401 -8 -478 -15 -646 -61 -316 -87 -571 -296 -699 -572
-120 -260 -141 -508 -131 -1587 5 -664 9 -746 47 -925 82 -395 337 -694 694
-816 246 -83 378 -92 1390 -86 698 3 824 6 910 20 408 69 711 271 865 577 64
129 103 262 131 455 16 112 23 1264 10 1650 -11 331 -22 417 -77 581 -93 279
-279 501 -522 623 -152 77 -370 126 -598 135 -231 10 -980 13 -1374 6z m1160
-360 c438 -20 597 -58 761 -179 82 -61 176 -193 219 -307 34 -91 61 -253 71
-434 17 -278 6 -1469 -15 -1642 -32 -266 -86 -400 -211 -523 -154 -152 -326
-214 -645 -235 -80 -5 -439 -10 -798 -10 -581 0 -674 2 -845 20 -223 23 -282
36 -392 89 -146 70 -240 166 -316 326 -94 198 -114 450 -106 1355 7 803 24
961 125 1153 108 208 325 333 644 372 180 22 1146 32 1508 15z"/>
<path d="M3513 3939 c-49 -24 -109 -87 -129 -135 -24 -58 -18 -142 15 -200 66
-115 193 -162 301 -113 96 43 154 126 154 224 1 70 -18 116 -72 170 -74 75
-183 97 -269 54z"/>
<path d="M2400 3664 c-158 -24 -242 -50 -360 -110 -289 -148 -505 -450 -549
-768 -65 -465 154 -886 571 -1097 272 -138 630 -140 912 -6 263 126 464 363
552 652 26 85 28 102 28 285 1 174 -1 204 -22 280 -51 188 -149 346 -301 492
-165 158 -325 235 -556 268 -67 9 -223 11 -275 4z m340 -390 c197 -65 368
-237 432 -434 29 -91 36 -281 14 -370 -48 -192 -193 -368 -369 -451 -98 -45
-180 -62 -297 -62 -202 0 -331 54 -481 203 -78 77 -103 109 -133 172 -164 342
-17 751 329 914 151 71 342 82 505 28z"/>
</g>
</svg>
