<?xml version="1.0" standalone="no"?>
<!DOCTYPE svg PUBLIC "-//W3C//DTD SVG 20010904//EN"
 "http://www.w3.org/TR/2001/REC-SVG-20010904/DTD/svg10.dtd">
<svg version="1.0" xmlns="http://www.w3.org/2000/svg"
 width="1024.000000pt" height="721.000000pt" viewBox="0 0 1024.000000 721.000000"
 preserveAspectRatio="xMidYMid meet">

<g transform="translate(0.000000,721.000000) scale(0.100000,-0.100000)"
fill="#fff" stroke="none">
<path d="M4390 7203 c-1506 -20 -2685 -88 -3170 -184 -462 -92 -836 -423 -985
-872 -138 -416 -229 -1426 -229 -2542 0 -1139 94 -2163 236 -2564 132 -374
433 -672 803 -795 456 -152 1965 -240 4115 -240 1990 0 3509 78 4005 204 419
107 760 427 900 844 56 168 117 521 155 908 20 199 20 257 17 1720 -3 1643 1
1508 -58 1923 -79 554 -178 796 -428 1046 -263 263 -508 358 -1091 423 -854
96 -2654 151 -4270 129z m1118 -2851 c706 -406 1284 -742 1284 -747 0 -6
-1647 -959 -2619 -1516 l-53 -30 0 1546 0 1546 53 -30 c28 -16 630 -362 1335
-769z"/>
</g>
</svg>
